<svg xmlns="http://www.w3.org/2000/svg" viewBox="0 0 70.17 70.16"><defs><style>.cls-1{fill:#fff;}</style></defs><title>search</title><g id="レイヤー_2" data-name="レイヤー 2"><g id="虫めがね"><path class="cls-1" d="M62.82,7.34a25.1,25.1,0,0,0-40.61,28.1,0,0,0,0,1,0,0L.47,57.17a1.64,1.64,0,0,0,0,2.3L10.7,69.69a1.62,1.62,0,0,0,1.14.47A1.64,1.64,0,0,0,13,69.69L34.71,48h0A25.11,25.11,0,0,0,62.82,7.34ZM31.27,46.82,11.84,66.25,3.91,58.32,23.34,38.89l4,4h0Zm29.26-6.26a21.87,21.87,0,0,1-30.93,0h0a21.87,21.87,0,1,1,30.94,0Z"/></g></g></svg>