<svg xmlns="http://www.w3.org/2000/svg" viewBox="0 0 94.4 94.4"><defs><style>.cls-1{fill:#595959;}</style></defs><title>odai-btn</title><g id="レイヤー_2" data-name="レイヤー 2"><g id="odai-button"><path class="cls-1" d="M35.59,28l-.79.85Z"/><path class="cls-1" d="M52,31.05a8.16,8.16,0,0,1,1.83,5.33,8,8,0,0,1-1.25,4.23,10.45,10.45,0,0,1-1.81,2.22l-2.51,2.48a19.46,19.46,0,0,0-4.67,6.28,20.31,20.31,0,0,0-1.06,7.22h5.58a15.54,15.54,0,0,1,.89-6,17.83,17.83,0,0,1,3.9-4.93,43.1,43.1,0,0,0,5.5-6.08,9.7,9.7,0,0,0,1.36-5.39,11.88,11.88,0,0,0-3.71-9q-3.72-3.53-9.88-3.52-6.67,0-10.5,4.12T31.8,38.91h5.57a15.17,15.17,0,0,1,1.29-6.23q2-3.88,7.23-3.89C48.71,28.79,50.73,29.55,52,31.05Z"/><path class="cls-1" d="M94.4,47.2A47.2,47.2,0,1,0,47.2,94.4,47.2,47.2,0,0,0,94.4,47.2Zm-90.11,0A42.91,42.91,0,1,1,47.2,90.1,42.91,42.91,0,0,1,4.29,47.2Z"/><rect class="cls-1" x="42.29" y="64.05" width="6.32" height="6.48"/></g></g></svg>