<svg xmlns="http://www.w3.org/2000/svg" viewBox="0 0 73.38 72.63"><title>pen2</title><g id="レイヤー_2" data-name="レイヤー 2"><g id="鉛筆"><path d="M72.92,14.42,59,.44a1.6,1.6,0,0,0-2.21,0L4.87,52.31a1.58,1.58,0,0,0-.41.72L.05,70.69a1.55,1.55,0,0,0,.38,1.45,1.58,1.58,0,0,0,1.13.49l.31,0,18.39-3.68a1.57,1.57,0,0,0,.8-.43L72.92,16.62A1.55,1.55,0,0,0,72.92,14.42ZM48.46,13.5,60.05,25.08l-2.58,2.58L45.89,16.07a1.76,1.76,0,0,0-.23-.14l2.65-2.65C48.37,13.35,48.4,13.43,48.46,13.5Zm-43,48.26,5.78,5.77-7.6,1.52ZM19.18,66l-4.54.91a1.54,1.54,0,0,0-.39-.76L6.89,58.75a1.5,1.5,0,0,0-.55-.36l1-4.18L43.53,18.06a1.43,1.43,0,0,0,.15.22L55.27,29.87ZM62.26,22.88,50.67,11.29c-.07-.06-.15-.09-.22-.15l7.39-7.39L69.61,15.52Z"/></g></g></svg>