<svg xmlns="http://www.w3.org/2000/svg" viewBox="0 0 67.15 66.39"><defs><style>.cls-1{fill:#fff;}</style></defs><title>reset</title><g id="レイヤー_2" data-name="レイヤー 2"><g id="tool-menu"><path class="cls-1" d="M62.46,2.48V16.24A33.66,33.66,0,0,0,0,33.22,33.36,33.36,0,0,0,33.58,66.39a33.4,33.4,0,0,0,33.57-33,2.46,2.46,0,0,0-2.31-2.53,2.34,2.34,0,0,0-2.44,2.34A28.85,28.85,0,1,1,4.74,31.44,28.94,28.94,0,0,1,59.8,21.27H43.3a2.44,2.44,0,0,0-2.49,2.29A2.34,2.34,0,0,0,43.18,26H64.76a2.39,2.39,0,0,0,2.39-2.39V2.29A2.32,2.32,0,0,0,64.3.06,2.45,2.45,0,0,0,62.46,2.48Z"/></g></g></svg>