<svg xmlns="http://www.w3.org/2000/svg" viewBox="0 0 46.57 46.22"><defs><style>.cls-1{fill:#fff;}</style></defs><title>reset-btn</title><g id="レイヤー_2" data-name="レイヤー 2"><g id="tool-menu"><path class="cls-1" d="M43.14,1.73l.08,9.55A23.34,23.34,0,0,0,0,23.41,23.14,23.14,0,0,0,23.47,46.22a23.17,23.17,0,0,0,23.1-23.07A1.71,1.71,0,0,0,45,21.41a1.62,1.62,0,0,0-1.67,1.64,20,20,0,1,1-40-.91A20.07,20.07,0,0,1,41.4,14.78L30,14.87a1.7,1.7,0,0,0-1.71,1.61,1.62,1.62,0,0,0,1.66,1.65l15-.13a1.65,1.65,0,0,0,1.64-1.67L46.39,1.57A1.61,1.61,0,0,0,44.4,0,1.7,1.7,0,0,0,43.14,1.73Z"/></g></g></svg>